#!OML:ASF F:\VICON\USERDATA\INSTALL\rory3\rory3.ASF
:FULLY-SPECIFIED
:DEGREES
100
root 0.4538907811301211 18.00346799132591 13.916514633161599 8.406862243312787 -1.071088722600253 -1.6982866153953793
lfemur -12.16037549855135 8.045178346386741 -17.456974340220334
ltibia 16.422900118445025
lfoot -9.381781091562363 5.6126924662267506
ltoes -7.18637809975548
rfemur -12.764865225712345 -2.8491095330110987 20.405336632058347
rtibia 18.969232750084977
rfoot -13.435675528290352 -0.3130579524860684
rtoes 12.168926351676351
lowerback -4.022084568639165 0.09561584661907963 -0.23828025006078424
upperback 0.8220455677215701 0.0370174839689979 1.2828206945895475
thorax 4.430720732759378 0.015591774292797705 1.4714533695839411
lowerneck -11.6961967633299 -0.10677347420778126 -2.2076929734636748
upperneck 26.450693410586837 -0.05624558728058512 1.9167033902760053
head 10.767269168624622 -0.059787556785635444 1.0081178639818795
lclavicle -1.7418355819112212e-15 2.462610232812089e-16
lhumerus -27.84119422490957 -0.5231244404110664 87.73513911182663
lradius 18.45394763569242
lwrist 2.3327937919490775
lhand -23.109508230332214 -4.814477573368969
lfingers 7.125019999999999
lthumb 3.3372775557450893 25.146798179395827
rclavicle -1.7418355819112214e-15 2.4626102328120895e-16
rhumerus -26.376586523731426 -17.626927603259922 -79.51093849738675
rradius 22.08252755254574
rwrist 38.7692019262021
rhand -16.96991464941227 -26.527754902868594
rfingers 7.125019999999999
rthumb 9.26418265644585 -56.309625710639786
101
root 0.4588057643636225 18.00621598159454 13.757272973354059 8.346653873958013 -1.072400174947671 -1.682656497514852
lfemur -11.918757571335059 8.090263395847792 -17.475905827368642
ltibia 16.576434513642305
lfoot -9.327786245558398 5.64910267470245
ltoes -7.032456235028359
rfemur -12.520852613030451 -2.838440465644173 20.374021142609735
rtibia 19.095813232800328
rfoot -13.335476449770123 -0.28012349161181493
rtoes 12.292319160718822
lowerback -3.995849646818404 0.10485068703978395 -0.20777416102728144
upperback 0.8324698151200265 0.04981798529865425 1.2895180603441123
thorax 4.4929262676649175 0.023671980550863794 1.4705376042979372
lowerneck -11.616789215158311 -0.07900787946030312 -2.2031087491119052
upperneck 26.368760476458803 0.0001839191293564954 1.891008640196205
head 10.729263083251324 -0.043329323614798694 1.0025784484322902
lclavicle -1.666871648309635e-15 3.407304582348864e-16
lhumerus -27.785102662179796 -0.44692945700607334 87.71191302903674
lradius 18.535735577617437
lwrist 2.4286010191698244
lhand -23.017968178483923 -4.709224865899875
lfingers 7.125019999999999
lthumb 3.4256711549482874 25.248614442936894
rclavicle -1.6668716483096349e-15 3.407304582348865e-16
rhumerus -26.26796864679945 -17.712773778976597 -79.43307146127567
rradius 22.238995380674545
rwrist 38.688120478722475
rhand -16.9423782261248 -26.4805669752504
rfingers 7.125019999999999
rthumb 9.290746982039527 -56.25929731658131
102
root 0.4600297666722889 18.03914266937908 13.627806192821941 8.31545260747606 -1.101487705920446 -1.6931303930412376
lfemur -12.03935621879904 8.106437359237946 -17.47194887329509
ltibia 16.683847293453628
lfoot -9.225780956562193 5.648397106599751
ltoes -7.093192539258588
rfemur -12.591483530303124 -2.7496618836105013 20.353171772791786
rtibia 19.16694559777022
rfoot -13.231159901780881 -0.4226194565566699
rtoes 12.128014832345274
lowerback -4.011074408803959 0.10091145249633099 -0.17398699309336174
upperback 0.821231040534016 0.04220816705413635 1.298760236199491
thorax 4.524050818060654 0.022107234079048688 1.4628035903779568
lowerneck -11.593516448682589 -0.05717673684157581 -2.215168729784114
upperneck 26.185734895685002 0.04291089063604324 1.8783827180782258
head 10.664256478946145 -0.030247294720420786 1.0038574084814726
lclavicle -1.6913068943056455e-15 3.163166934100967e-16
lhumerus -27.741545321534883 -0.6181679100730655 87.74998608561597
lradius 18.512765854579847
lwrist 2.2022474171955135
lhand -22.948895086635297 -4.680549817236464
lfingers 7.125019999999999
lthumb 3.4923529967773974 25.275627917154466
rclavicle -1.6913068943056456e-15 3.163166934100968e-16
rhumerus -26.277157383667824 -17.47829422139196 -79.46588006741604
rradius 22.35033445527784
rwrist 38.5758793738953
rhand -16.90100084705853 -26.45835768482366
rfingers 7.125019999999999
rthumb 9.330656905489645 -56.236189602413475
103
root 0.46400723917192893 18.030495126915888 13.4944558937399 8.244270194419704 -1.11654440151076 -1.6896944008049997
lfemur -12.317242433578233 8.128111367469257 -17.53053077818854
ltibia 16.808115642841113
lfoot -9.31560175270777 5.61261982341794
ltoes -7.1451344567948105
rfemur -12.824477152289468 -2.771335984521664 20.319302483880158
rtibia 19.274392416018344
rfoot -13.32510467390751 -0.43637194446261907
rtoes 11.950841567651768
lowerback -3.9667571691744064 0.10673488056846522 -0.16631790691061227
upperback 0.8188263098911197 0.05130538138464505 1.3036183312504026
thorax 4.459549586317434 0.02714422509780301 1.461052370063076
lowerneck -11.623222538734062 -0.05063583164579119 -2.2274390844073633
upperneck 25.92619423298804 0.06353370151382598 1.8510916018545913
head 10.573955592250602 -0.026225093021471704 0.9990375233382922
lclavicle -1.7311587334050046e-15 2.5474949896348463e-16
lhumerus -27.726227127086116 -0.90558340872626 87.77053502715525
lradius 18.662713321300437
lwrist 2.629616553811734
lhand -22.891441458569325 -4.625467609330699
lfingers 7.125019999999999
lthumb 3.54783003463837 25.328307861051865
rclavicle -1.7311587334050046e-15 2.5474949896348483e-16
rhumerus -26.26313710271336 -17.449440332443206 -79.42758772689622
rradius 22.466076562295566
rwrist 38.411507078807865
rhand -16.872680215542633 -26.431501708491595
rfingers 7.125019999999999
rthumb 9.35797186063995 -56.20871115448151
104
root 0.468613073774073 18.018042268520542 13.31337554013139 8.190404482264217 -1.1189350224177619 -1.6845360641587441
lfemur -12.185880366103286 8.159647506764722 -17.55454214175418
ltibia 16.917051500845552
lfoot -9.375990748179401 5.678726839249045
ltoes -7.008551092375406
rfemur -12.73246136273149 -2.761134632537588 20.288651881228848
rtibia 19.393253751779973
rfoot -13.347927622376591 -0.5085716405606764
rtoes 11.967310981792995
lowerback -3.8979376088996416 0.12011243420039222 -0.14406403584832417
upperback 0.8138080641363821 0.06826328163882955 1.313829261211698
thorax 4.465087695089747 0.03787462205582723 1.4640282767520882
lowerneck -11.615591544573975 -0.03194062593709808 -2.2257518545295336
upperneck 25.813571000024503 0.10589477589001792 1.827447305093194
head 10.531362672792852 -0.014234713784863823 0.994006597061775
lclavicle -1.6827472512107797e-15 3.20880259998004e-16
lhumerus -27.654922354491664 -1.0356401690877084 87.85336309847594
lradius 18.687611830312616
lwrist 2.739649171590074
lhand -22.79733223604723 -4.510373503729078
lfingers 7.125019999999999
lthumb 3.6387012723209446 25.44015345187367
rclavicle -1.6827472512107797e-15 3.2088025999800404e-16
rhumerus -26.16585042800046 -17.41593785004105 -79.38234413155197
rradius 22.52298874320185
rwrist 38.3322540386154
rhand -16.833715364499433 -26.41924333399262
rfingers 7.125019999999999
rthumb 9.395560411209914 -56.19375236827991
105
root 0.4703045443049543 18.01691925091078 13.141363111031831 8.18615994049081 -1.1373854342908485 -1.6983324885840707
lfemur -12.559127442095852 8.137103337078024 -17.567138992097348
ltibia 17.07636827947251
lfoot -9.437404833608122 5.669234295421849
ltoes -7.183659588070423
rfemur -13.039668534518333 -2.708186638604899 20.257490668184484
rtibia 19.54659563329156
rfoot -13.439532188338527 -0.6820656785361452
rtoes 11.649137788861822
lowerback -3.8559380404768238 0.10663232914160167 -0.1225855106405489
upperback 0.7860791365184456 0.05199146142609945 1.3221383784658602
thorax 4.397444815047032 0.031059957061457033 1.4597739288049367
lowerneck -11.669261288565764 -0.024458001606532873 -2.2362615582541303
upperneck 25.545158730928783 0.11982776986770571 1.8121483003669676
head 10.444378308397667 -0.009692999323518095 0.9928134843061501
lclavicle -1.7406939816286457e-15 2.474667366764629e-16
lhumerus -27.53185750448705 -1.3115965923573154 87.91303606387844
lradius 18.667695046929396
lwrist 2.6365867339138016
lhand -22.807512781986254 -4.518779599113393
lfingers 7.125019999999999
lthumb 3.6288625280767 25.431511005552753
rclavicle -1.740693981628646e-15 2.474667366764631e-16
rhumerus -26.14024350121043 -17.17044055863265 -79.44751990370483
rradius 22.5718318922127
rwrist 38.20214858660183
rhand -16.80931989912543 -26.413782127390622
rfingers 7.125019999999999
rthumb 9.419082498325205 -56.18894576957765
